<svg aria-hidden="true" style="position: absolute; width: 0; height: 0; overflow: hidden;" version="1.1" xmlns="http://www.w3.org/2000/svg" xmlns:xlink="http://www.w3.org/1999/xlink">
<defs>
<symbol id="icon-premium" viewBox="0 0 32 32">
<path fill="#096a61" style="fill: var(--color1, #096a61)" d="M12.9 18.267l1.167-3.8-3.067-2.467h3.8l1.2-3.733 1.2 3.733h3.8l-3.1 2.467 1.167 3.8-3.067-2.367-3.1 2.367zM8 30.667v-10.3c-0.844-0.933-1.5-2-1.967-3.2s-0.7-2.478-0.7-3.833c0-2.978 1.033-5.5 3.1-7.567s4.589-3.1 7.567-3.1c2.978 0 5.5 1.033 7.567 3.1s3.1 4.589 3.1 7.567c0 1.356-0.233 2.633-0.7 3.833s-1.122 2.267-1.967 3.2v10.3l-8-2.667-8 2.667zM16 21.333c2.222 0 4.111-0.778 5.667-2.333s2.333-3.444 2.333-5.667c0-2.222-0.778-4.111-2.333-5.667s-3.444-2.333-5.667-2.333c-2.222 0-4.111 0.778-5.667 2.333s-2.333 3.444-2.333 5.667c0 2.222 0.778 4.111 2.333 5.667s3.444 2.333 5.667 2.333z"></path>
</symbol>
<symbol id="icon-recommend" viewBox="0 0 32 32">
<path fill="#096a61" style="fill: var(--color1, #096a61)" d="M12 24h7.333c0.378 0 0.728-0.095 1.051-0.284s0.55-0.45 0.683-0.783l2.8-6.533c0.044-0.111 0.078-0.222 0.1-0.333s0.033-0.222 0.033-0.333v-1.067c0-0.378-0.128-0.695-0.384-0.951s-0.572-0.384-0.949-0.383h-6.133l0.8-4.533c0.044-0.222 0.033-0.433-0.033-0.633s-0.178-0.378-0.333-0.533l-0.967-0.967-6.133 6.667c-0.178 0.178-0.311 0.378-0.4 0.6s-0.133 0.467-0.133 0.733v6.667c0 0.733 0.261 1.361 0.784 1.884s1.15 0.784 1.883 0.783zM16 29.333c-1.844 0-3.578-0.35-5.2-1.051s-3.033-1.65-4.233-2.849c-1.2-1.2-2.15-2.611-2.849-4.233s-1.050-3.356-1.051-5.2c0-1.844 0.35-3.578 1.051-5.2s1.65-3.033 2.849-4.233c1.2-1.2 2.611-2.15 4.233-2.849s3.356-1.050 5.2-1.051c1.844 0 3.578 0.35 5.2 1.051s3.033 1.65 4.233 2.849c1.2 1.2 2.15 2.611 2.851 4.233s1.050 3.356 1.049 5.2c0 1.844-0.35 3.578-1.051 5.2s-1.65 3.033-2.849 4.233c-1.2 1.2-2.611 2.15-4.233 2.851s-3.356 1.050-5.2 1.049zM16 26.667c2.978 0 5.5-1.033 7.567-3.1s3.1-4.589 3.1-7.567c0-2.978-1.033-5.5-3.1-7.567s-4.589-3.1-7.567-3.1c-2.978 0-5.5 1.033-7.567 3.1s-3.1 4.589-3.1 7.567c0 2.978 1.033 5.5 3.1 7.567s4.589 3.1 7.567 3.1z"></path>
</symbol>
<symbol id="icon-hand-heart" viewBox="0 0 32 32">
<path fill="#096a61" style="fill: var(--color1, #096a61)" d="M21.493 4.307c0.947-1.093 2.147-1.64 3.6-1.64 1.213 0 2.227 0.44 3.067 1.333s1.28 1.907 1.333 3.067c0 0.933-0.44 2.013-1.333 3.28s-1.76 2.32-2.627 3.187c-0.867 0.853-2.213 2.12-4.040 3.8-1.853-1.68-3.213-2.947-4.080-3.8s-1.747-1.92-2.627-3.187-1.293-2.347-1.293-3.28c0-1.213 0.427-2.227 1.293-3.067s1.907-1.28 3.12-1.333c1.427 0 2.613 0.547 3.587 1.64zM29.493 25.333v1.333l-10.667 3.333-9.333-2.587v1.92h-8v-14.667h10.627l8.213 3.067c0.732 0.276 1.362 0.768 1.808 1.411s0.684 1.406 0.686 2.189h2.667c2.213 0 4 1.787 4 4zM6.826 26.667v-9.333h-2.667v9.333h2.667zM26.693 24.76c-0.213-0.44-0.68-0.76-1.2-0.76h-7.133c-0.72 0-1.427-0.107-2.107-0.333l-3.173-1.053 0.84-2.533 3.173 1.053c0.4 0.133 3.067 0.2 3.067 0.2 0-0.493-0.307-0.933-0.76-1.107l-7.76-2.893h-2.147v7.333l9.293 2.547 7.907-2.453z"></path>
</symbol>
<symbol id="icon-Vector" viewBox="0 0 11 32">
<path d="M11.429 16l-9.266 16-2.162-3.733 7.104-12.267-7.104-12.267 2.162-3.733 9.266 16z"></path>
</symbol>
<symbol id="icon-telegram" viewBox="0 0 37 32">
<path fill="#096a61" style="fill: var(--color1, #096a61)" d="M2.242 13.999c0 0 16.175-6.812 21.784-9.211 2.15-0.959 9.443-4.030 9.443-4.030s3.366-1.343 3.085 1.919c-0.093 1.343-0.841 6.045-1.589 11.13-1.122 7.196-2.338 15.064-2.338 15.064s-0.187 2.207-1.776 2.591c-1.59 0.384-4.207-1.343-4.675-1.727-0.374-0.288-7.012-4.606-9.443-6.717-0.654-0.576-1.402-1.727 0.093-3.070 3.366-3.166 7.386-7.1 9.817-9.595 1.122-1.151 2.244-3.838-2.431-0.576-6.638 4.702-13.183 9.115-13.183 9.115s-1.496 0.959-4.301 0.096c-2.805-0.863-6.077-2.015-6.077-2.015s-2.244-1.439 1.59-2.974z"></path>
</symbol>
<symbol id="icon-instagram" viewBox="0 0 32 32">
<path fill="#096a61" style="fill: var(--color1, #096a61)" d="M10.669 16c0-2.945 2.386-5.334 5.331-5.334s5.332 2.388 5.332 5.334c0 2.945-2.388 5.334-5.332 5.334s-5.331-2.388-5.331-5.334zM7.787 16c0 4.538 3.677 8.216 8.213 8.216s8.214-3.678 8.214-8.216-3.677-8.216-8.214-8.216c-4.536 0-8.213 3.678-8.213 8.216zM22.619 7.458c-0 0.38 0.112 0.751 0.323 1.067s0.511 0.562 0.861 0.707c0.351 0.145 0.737 0.184 1.109 0.11s0.714-0.257 0.983-0.525c0.269-0.268 0.451-0.61 0.526-0.983s0.036-0.758-0.109-1.109c-0.145-0.351-0.391-0.651-0.707-0.862s-0.687-0.324-1.066-0.324h-0.001c-0.509 0-0.997 0.202-1.357 0.562s-0.562 0.848-0.563 1.357zM9.538 29.024c-1.559-0.071-2.407-0.331-2.97-0.55-0.747-0.291-1.28-0.637-1.84-1.197s-0.907-1.092-1.196-1.839c-0.22-0.563-0.479-1.411-0.55-2.971-0.078-1.686-0.093-2.193-0.093-6.466s0.017-4.778 0.093-6.466c0.071-1.56 0.333-2.406 0.55-2.971 0.291-0.747 0.637-1.28 1.196-1.84s1.092-0.907 1.84-1.197c0.563-0.22 1.411-0.479 2.97-0.55 1.686-0.078 2.193-0.093 6.462-0.093s4.777 0.017 6.464 0.093c1.559 0.071 2.406 0.333 2.97 0.55 0.747 0.29 1.28 0.637 1.84 1.197s0.906 1.093 1.196 1.84c0.22 0.563 0.479 1.411 0.55 2.971 0.078 1.688 0.093 2.193 0.093 6.466s-0.016 4.778-0.093 6.466c-0.071 1.56-0.332 2.408-0.55 2.971-0.291 0.747-0.637 1.28-1.196 1.839s-1.093 0.906-1.84 1.197c-0.563 0.22-1.411 0.48-2.97 0.55-1.686 0.078-2.193 0.093-6.464 0.093s-4.777-0.015-6.462-0.093zM9.406 0.097c-1.703 0.078-2.866 0.348-3.883 0.743-1.052 0.408-1.943 0.956-2.833 1.845s-1.437 1.782-1.845 2.834c-0.395 1.017-0.665 2.18-0.743 3.884-0.079 1.706-0.097 2.251-0.097 6.596s0.018 4.89 0.097 6.596c0.078 1.704 0.348 2.867 0.743 3.884 0.408 1.052 0.955 1.946 1.845 2.834s1.781 1.436 2.833 1.846c1.018 0.395 2.18 0.666 3.883 0.743 1.706 0.077 2.251 0.097 6.595 0.097s4.889-0.018 6.595-0.097c1.703-0.078 2.866-0.348 3.883-0.743 1.052-0.41 1.943-0.956 2.833-1.846s1.436-1.782 1.845-2.834c0.395-1.017 0.667-2.18 0.743-3.884 0.078-1.707 0.096-2.251 0.096-6.596s-0.018-4.89-0.096-6.596c-0.078-1.703-0.348-2.867-0.743-3.884-0.409-1.052-0.956-1.944-1.845-2.834s-1.782-1.437-2.832-1.845c-1.018-0.396-2.181-0.667-3.882-0.743-1.706-0.078-2.251-0.097-6.595-0.097s-4.889 0.018-6.596 0.097z"></path>
</symbol>
<symbol id="icon-search" viewBox="0 0 32 32">
<path d="M31.008 27.231l-7.58-6.447c-0.784-0.705-1.622-1.029-2.299-0.998 1.789-2.096 2.87-4.815 2.87-7.787 0-6.627-5.373-12-12-12s-12 5.373-12 12 5.373 12 12 12c2.972 0 5.691-1.081 7.787-2.87-0.031 0.677 0.293 1.515 0.998 2.299l6.447 7.58c1.104 1.226 2.907 1.33 4.007 0.23s0.997-2.903-0.23-4.007zM12 20c-4.418 0-8-3.582-8-8s3.582-8 8-8 8 3.582 8 8-3.582 8-8 8z"></path>
</symbol>
<symbol id="icon-arrow-left" viewBox="0 0 32 32">
<path d="M12.586 27.414l-10-10c-0.781-0.781-0.781-2.047 0-2.828l10-10c0.781-0.781 2.047-0.781 2.828 0s0.781 2.047 0 2.828l-6.586 6.586h19.172c1.105 0 2 0.895 2 2s-0.895 2-2 2h-19.172l6.586 6.586c0.39 0.39 0.586 0.902 0.586 1.414s-0.195 1.024-0.586 1.414c-0.781 0.781-2.047 0.781-2.828 0z"></path>
</symbol>
<symbol id="icon-share" viewBox="0 0 32 32">
<path fill="#096a61" d="M27 22c-1.411 0-2.685 0.586-3.594 1.526l-13.469-6.734c0.041-0.258 0.063-0.522 0.063-0.791s-0.022-0.534-0.063-0.791l13.469-6.734c0.909 0.94 2.183 1.526 3.594 1.526 2.761 0 5-2.239 5-5s-2.239-5-5-5-5 2.239-5 5c0 0.269 0.022 0.534 0.063 0.791l-13.469 6.734c-0.909-0.94-2.183-1.526-3.594-1.526-2.761 0-5 2.239-5 5s2.239 5 5 5c1.411 0 2.685-0.586 3.594-1.526l13.469 6.734c-0.041 0.258-0.063 0.522-0.063 0.791 0 2.761 2.239 5 5 5s5-2.239 5-5c0-2.761-2.239-5-5-5z"></path>
</symbol>
<symbol id="icon-shopping-bag" viewBox="0 0 28 28">
<path fill="#ffffff" d="M27.453 22l0.547 4.891c0.031 0.281-0.063 0.562-0.25 0.781-0.187 0.203-0.469 0.328-0.75 0.328h-26c-0.281 0-0.562-0.125-0.75-0.328-0.187-0.219-0.281-0.5-0.25-0.781l0.547-4.891h26.906zM26 8.891l1.344 12.109h-26.688l1.344-12.109c0.063-0.5 0.484-0.891 1-0.891h4v2c0 1.109 0.891 2 2 2s2-0.891 2-2v-2h6v2c0 1.109 0.891 2 2 2s2-0.891 2-2v-2h4c0.516 0 0.938 0.391 1 0.891zM20 6v4c0 0.547-0.453 1-1 1s-1-0.453-1-1v-4c0-2.203-1.797-4-4-4s-4 1.797-4 4v4c0 0.547-0.453 1-1 1s-1-0.453-1-1v-4c0-3.313 2.688-6 6-6s6 2.688 6 6z"></path>
</symbol>
<symbol id="icon-facebook" viewBox="0 0 32 32">
<path fill="#096a61" d="M29 0h-26c-1.65 0-3 1.35-3 3v26c0 1.65 1.35 3 3 3h13v-14h-4v-4h4v-2c0-3.306 2.694-6 6-6h4v4h-4c-1.1 0-2 0.9-2 2v2h6l-1 4h-5v14h9c1.65 0 3-1.35 3-3v-26c0-1.65-1.35-3-3-3z"></path>
</symbol>
<symbol id="icon-add-article" viewBox="0 0 28 28">
<path d="M13.875 18.5l1.813-1.813-2.375-2.375-1.813 1.813v0.875h1.5v1.5h0.875zM20.75 7.25c-0.141-0.141-0.375-0.125-0.516 0.016l-5.469 5.469c-0.141 0.141-0.156 0.375-0.016 0.516s0.375 0.125 0.516-0.016l5.469-5.469c0.141-0.141 0.156-0.375 0.016-0.516zM22 16.531v2.969c0 2.484-2.016 4.5-4.5 4.5h-13c-2.484 0-4.5-2.016-4.5-4.5v-13c0-2.484 2.016-4.5 4.5-4.5h13c0.625 0 1.25 0.125 1.828 0.391 0.141 0.063 0.25 0.203 0.281 0.359 0.031 0.172-0.016 0.328-0.141 0.453l-0.766 0.766c-0.141 0.141-0.328 0.187-0.5 0.125-0.234-0.063-0.469-0.094-0.703-0.094h-13c-1.375 0-2.5 1.125-2.5 2.5v13c0 1.375 1.125 2.5 2.5 2.5h13c1.375 0 2.5-1.125 2.5-2.5v-1.969c0-0.125 0.047-0.25 0.141-0.344l1-1c0.156-0.156 0.359-0.187 0.547-0.109s0.313 0.25 0.313 0.453zM20.5 5l4.5 4.5-10.5 10.5h-4.5v-4.5zM27.438 7.063l-1.437 1.437-4.5-4.5 1.437-1.437c0.578-0.578 1.547-0.578 2.125 0l2.375 2.375c0.578 0.578 0.578 1.547 0 2.125z"></path>
</symbol>
<symbol id="icon-analytics" viewBox="0 0 32 28">
<path d="M32 24v2h-32v-24h2v22h30zM30 4.5v6.797c0 0.438-0.531 0.672-0.859 0.344l-1.891-1.891-9.891 9.891c-0.203 0.203-0.516 0.203-0.719 0l-3.641-3.641-6.5 6.5-3-3 9.141-9.141c0.203-0.203 0.516-0.203 0.719 0l3.641 3.641 7.25-7.25-1.891-1.891c-0.328-0.328-0.094-0.859 0.344-0.859h6.797c0.281 0 0.5 0.219 0.5 0.5z"></path>
</symbol>
<symbol id="icon-add-product" viewBox="0 0 26 28">
<path d="M19 11c0-0.547-0.453-1-1-1h-2v-2c0-0.547-0.453-1-1-1s-1 0.453-1 1v2h-2c-0.547 0-1 0.453-1 1s0.453 1 1 1h2v2c0 0.547 0.453 1 1 1s1-0.453 1-1v-2h2c0.547 0 1-0.453 1-1zM10 24c0 1.109-0.891 2-2 2s-2-0.891-2-2 0.891-2 2-2 2 0.891 2 2zM24 24c0 1.109-0.891 2-2 2s-2-0.891-2-2 0.891-2 2-2 2 0.891 2 2zM26 7v8c0 0.5-0.375 0.938-0.891 1l-16.312 1.906c0.063 0.344 0.203 0.734 0.203 1.094s-0.219 0.688-0.375 1h14.375c0.547 0 1 0.453 1 1s-0.453 1-1 1h-16c-0.547 0-1-0.453-1-1 0-0.484 0.734-1.687 0.953-2.141l-2.766-12.859h-3.187c-0.547 0-1-0.453-1-1s0.453-1 1-1h4c1.062 0 1.078 1.25 1.234 2h18.766c0.547 0 1 0.453 1 1z"></path>
</symbol>
<symbol id="icon-sign-out" viewBox="0 0 25 28">
<path d="M10 22.5c0 0.438 0.203 1.5-0.5 1.5h-5c-2.484 0-4.5-2.016-4.5-4.5v-11c0-2.484 2.016-4.5 4.5-4.5h5c0.266 0 0.5 0.234 0.5 0.5 0 0.438 0.203 1.5-0.5 1.5h-5c-1.375 0-2.5 1.125-2.5 2.5v11c0 1.375 1.125 2.5 2.5 2.5h4.5c0.391 0 1-0.078 1 0.5zM24.5 14c0 0.266-0.109 0.516-0.297 0.703l-8.5 8.5c-0.187 0.187-0.438 0.297-0.703 0.297-0.547 0-1-0.453-1-1v-4.5h-7c-0.547 0-1-0.453-1-1v-6c0-0.547 0.453-1 1-1h7v-4.5c0-0.547 0.453-1 1-1 0.266 0 0.516 0.109 0.703 0.297l8.5 8.5c0.187 0.187 0.297 0.438 0.297 0.703z"></path>
</symbol>
</defs>
</svg>
