<svg width="16" height="16" viewBox="0 0 16 16" fill="none" xmlns="http://www.w3.org/2000/svg">
<path d="M5.33466 8C5.33466 6.5273 6.52785 5.33312 8.00013 5.33312C9.47241 5.33312 10.6662 6.5273 10.6662 8C10.6662 9.4727 9.47241 10.6669 8.00013 10.6669C6.52785 10.6669 5.33466 9.4727 5.33466 8ZM3.89341 8C3.89341 10.2688 5.73199 12.1079 8.00013 12.1079C10.2683 12.1079 12.1069 10.2688 12.1069 8C12.1069 5.7312 10.2683 3.8921 8.00013 3.8921C5.73199 3.8921 3.89341 5.7312 3.89341 8ZM11.3097 3.72922C11.3096 3.91909 11.3658 4.10471 11.4712 4.26263C11.5766 4.42054 11.7265 4.54365 11.9018 4.61638C12.0771 4.68911 12.2701 4.7082 12.4563 4.67123C12.6425 4.63426 12.8135 4.5429 12.9478 4.40869C13.0821 4.27449 13.1735 4.10347 13.2106 3.91726C13.2477 3.73106 13.2288 3.53802 13.1562 3.36258C13.0837 3.18713 12.9607 3.03715 12.8029 2.9316C12.6452 2.82605 12.4596 2.76968 12.2698 2.7696H12.2694C12.015 2.76972 11.771 2.87085 11.5911 3.05077C11.4111 3.2307 11.3099 3.47471 11.3097 3.72922ZM4.76906 14.5118C3.98932 14.4763 3.56551 14.3464 3.28386 14.2366C2.91047 14.0912 2.64405 13.918 2.36394 13.6382C2.08382 13.3584 1.91043 13.0922 1.76571 12.7187C1.65592 12.4371 1.52603 12.013 1.49059 11.233C1.45181 10.3898 1.44407 10.1364 1.44407 8.00006C1.44407 5.86368 1.45245 5.61107 1.49059 4.7671C1.5261 3.98714 1.65694 3.5639 1.76571 3.28147C1.91107 2.90797 2.08421 2.64147 2.36394 2.36128C2.64366 2.08109 2.90983 1.90765 3.28386 1.76288C3.56538 1.65306 3.98932 1.52314 4.76906 1.48768C5.61209 1.4489 5.86532 1.44115 8.00013 1.44115C10.1349 1.44115 10.3884 1.44954 11.2322 1.48768C12.0119 1.5232 12.435 1.65408 12.7174 1.76288C13.0908 1.90765 13.3572 2.08147 13.6373 2.36128C13.9174 2.64109 14.0901 2.90797 14.2355 3.28147C14.3453 3.56307 14.4752 3.98714 14.5106 4.7671C14.5494 5.61107 14.5572 5.86368 14.5572 8.00006C14.5572 10.1364 14.5494 10.3891 14.5106 11.233C14.4751 12.013 14.3446 12.4369 14.2355 12.7187C14.0901 13.0922 13.917 13.3587 13.6373 13.6382C13.3576 13.9178 13.0908 14.0912 12.7174 14.2366C12.4358 14.3464 12.0119 14.4764 11.2322 14.5118C10.3891 14.5506 10.1359 14.5583 8.00013 14.5583C5.86436 14.5583 5.61183 14.5506 4.76906 14.5118ZM4.70284 0.048448C3.85144 0.087232 3.26966 0.222272 2.76158 0.420032C2.2354 0.624256 1.78996 0.89824 1.34484 1.34278C0.899718 1.78733 0.626517 2.2336 0.422352 2.75994C0.224649 3.26848 0.0896482 3.85011 0.0508754 4.70176C0.0114628 5.55475 0.00244141 5.82746 0.00244141 8C0.00244141 10.1725 0.0114628 10.4452 0.0508754 11.2982C0.0896482 12.15 0.224649 12.7315 0.422352 13.2401C0.626517 13.7661 0.899782 14.2129 1.34484 14.6572C1.78989 15.1016 2.2354 15.3752 2.76158 15.58C3.27062 15.7777 3.85144 15.9128 4.70284 15.9516C5.55604 15.9903 5.82822 16 8.00013 16C10.172 16 10.4447 15.991 11.2974 15.9516C12.1489 15.9128 12.7303 15.7777 13.2387 15.58C13.7645 15.3752 14.2103 15.1018 14.6554 14.6572C15.1005 14.2127 15.3732 13.7661 15.5779 13.2401C15.7756 12.7315 15.9113 12.1499 15.9494 11.2982C15.9882 10.4446 15.9972 10.1725 15.9972 8C15.9972 5.82746 15.9882 5.55475 15.9494 4.70176C15.9106 3.85005 15.7756 3.26816 15.5779 2.75994C15.3732 2.23392 15.0998 1.78803 14.6554 1.34278C14.211 0.897536 13.7645 0.624256 13.2393 0.420032C12.7303 0.222272 12.1488 0.086592 11.2981 0.048448C10.4453 0.009664 10.1727 0 8.00077 0C5.82886 0 5.55604 0.009024 4.70284 0.048448Z" fill="#096A61"/>
<path d="M5.33466 8C5.33466 6.5273 6.52785 5.33312 8.00013 5.33312C9.47241 5.33312 10.6662 6.5273 10.6662 8C10.6662 9.4727 9.47241 10.6669 8.00013 10.6669C6.52785 10.6669 5.33466 9.4727 5.33466 8ZM3.89341 8C3.89341 10.2688 5.73199 12.1079 8.00013 12.1079C10.2683 12.1079 12.1069 10.2688 12.1069 8C12.1069 5.7312 10.2683 3.8921 8.00013 3.8921C5.73199 3.8921 3.89341 5.7312 3.89341 8ZM11.3097 3.72922C11.3096 3.91909 11.3658 4.10471 11.4712 4.26263C11.5766 4.42054 11.7265 4.54365 11.9018 4.61638C12.0771 4.68911 12.2701 4.7082 12.4563 4.67123C12.6425 4.63426 12.8135 4.5429 12.9478 4.40869C13.0821 4.27449 13.1735 4.10347 13.2106 3.91726C13.2477 3.73106 13.2288 3.53802 13.1562 3.36258C13.0837 3.18713 12.9607 3.03715 12.8029 2.9316C12.6452 2.82605 12.4596 2.76968 12.2698 2.7696H12.2694C12.015 2.76972 11.771 2.87085 11.5911 3.05077C11.4111 3.2307 11.3099 3.47471 11.3097 3.72922ZM4.76906 14.5118C3.98932 14.4763 3.56551 14.3464 3.28386 14.2366C2.91047 14.0912 2.64405 13.918 2.36394 13.6382C2.08382 13.3584 1.91043 13.0922 1.76571 12.7187C1.65592 12.4371 1.52603 12.013 1.49059 11.233C1.45181 10.3898 1.44407 10.1364 1.44407 8.00006C1.44407 5.86368 1.45245 5.61107 1.49059 4.7671C1.5261 3.98714 1.65694 3.5639 1.76571 3.28147C1.91107 2.90797 2.08421 2.64147 2.36394 2.36128C2.64366 2.08109 2.90983 1.90765 3.28386 1.76288C3.56538 1.65306 3.98932 1.52314 4.76906 1.48768C5.61209 1.4489 5.86532 1.44115 8.00013 1.44115C10.1349 1.44115 10.3884 1.44954 11.2322 1.48768C12.0119 1.5232 12.435 1.65408 12.7174 1.76288C13.0908 1.90765 13.3572 2.08147 13.6373 2.36128C13.9174 2.64109 14.0901 2.90797 14.2355 3.28147C14.3453 3.56307 14.4752 3.98714 14.5106 4.7671C14.5494 5.61107 14.5572 5.86368 14.5572 8.00006C14.5572 10.1364 14.5494 10.3891 14.5106 11.233C14.4751 12.013 14.3446 12.4369 14.2355 12.7187C14.0901 13.0922 13.917 13.3587 13.6373 13.6382C13.3576 13.9178 13.0908 14.0912 12.7174 14.2366C12.4358 14.3464 12.0119 14.4764 11.2322 14.5118C10.3891 14.5506 10.1359 14.5583 8.00013 14.5583C5.86436 14.5583 5.61183 14.5506 4.76906 14.5118ZM4.70284 0.048448C3.85144 0.087232 3.26966 0.222272 2.76158 0.420032C2.2354 0.624256 1.78996 0.89824 1.34484 1.34278C0.899718 1.78733 0.626517 2.2336 0.422352 2.75994C0.224649 3.26848 0.0896482 3.85011 0.0508754 4.70176C0.0114628 5.55475 0.00244141 5.82746 0.00244141 8C0.00244141 10.1725 0.0114628 10.4452 0.0508754 11.2982C0.0896482 12.15 0.224649 12.7315 0.422352 13.2401C0.626517 13.7661 0.899782 14.2129 1.34484 14.6572C1.78989 15.1016 2.2354 15.3752 2.76158 15.58C3.27062 15.7777 3.85144 15.9128 4.70284 15.9516C5.55604 15.9903 5.82822 16 8.00013 16C10.172 16 10.4447 15.991 11.2974 15.9516C12.1489 15.9128 12.7303 15.7777 13.2387 15.58C13.7645 15.3752 14.2103 15.1018 14.6554 14.6572C15.1005 14.2127 15.3732 13.7661 15.5779 13.2401C15.7756 12.7315 15.9113 12.1499 15.9494 11.2982C15.9882 10.4446 15.9972 10.1725 15.9972 8C15.9972 5.82746 15.9882 5.55475 15.9494 4.70176C15.9106 3.85005 15.7756 3.26816 15.5779 2.75994C15.3732 2.23392 15.0998 1.78803 14.6554 1.34278C14.211 0.897536 13.7645 0.624256 13.2393 0.420032C12.7303 0.222272 12.1488 0.086592 11.2981 0.048448C10.4453 0.009664 10.1727 0 8.00077 0C5.82886 0 5.55604 0.009024 4.70284 0.048448Z" fill="#096A61"/>
</svg>
