<svg width="16" height="14" viewBox="0 0 16 14" fill="none" xmlns="http://www.w3.org/2000/svg">
<path d="M0.980933 6.12436C0.980933 6.12436 8.05735 3.1439 10.5116 2.0944C11.4524 1.67464 14.6429 0.331278 14.6429 0.331278C14.6429 0.331278 16.1155 -0.256391 15.9927 1.17086C15.9518 1.75859 15.6246 3.81552 15.2974 6.04041C14.8065 9.18884 14.2747 12.6311 14.2747 12.6311C14.2747 12.6311 14.1929 13.5966 13.4976 13.7645C12.8022 13.9324 11.6569 13.1769 11.4524 13.0089C11.2887 12.883 8.38457 10.9939 7.32106 10.0704C7.03472 9.81851 6.70751 9.3148 7.36194 8.72707C8.83451 7.34176 10.5934 5.62065 11.6569 4.5292C12.1477 4.02543 12.6386 2.85003 10.5934 4.27729C7.68921 6.33427 4.82592 8.2653 4.82592 8.2653C4.82592 8.2653 4.17144 8.68506 2.94433 8.30725C1.71716 7.92949 0.285519 7.42571 0.285519 7.42571C0.285519 7.42571 -0.696122 6.79604 0.980933 6.12436Z" fill="#096A61"/>
</svg>
